999
FBX AutoCAD (*.DXF) exporter
  0
SECTION
  2
HEADER
  9
$ACADVER
  1
AC1008
  9
$UCSORG
 10
0.0
 20
0.0
 30
0.0
  9
$UCSXDIR
 10
1.0
 20
0.0
 30
0.0
  9
$TILEMODE
 70
   1
  9
$UCSYDIR
 10
0.0
 20
1.0
 30
0.0
  0
ENDSEC
  0
SECTION
  2
TABLES
  0
TABLE
  2
LTYPE
 70
   1
  0
LTYPE
  2
CONTINUOUS
 70
   64
  3
Solid line
 72
   65
 73
   0
 40
0.0
  0
ENDTAB
  0
TABLE
  2
LAYER
 70
   1
  0
LAYER
  2
Box001
 70
   0
 62
   251
  6
CONTINUOUS
  0
ENDTAB
  0
ENDSEC
  0
SECTION
  2
BLOCKS
  0
ENDSEC
  0
SECTION
  2
ENTITIES
  0
POLYLINE
  8
Box001
 62
   251
 66
   1
 10
0.0
 20
0.0
 30
0.0
 70
   64
 71
   32
 72
   60
  0
VERTEX
  8
Box001
 10
-22.751968
 20
-0.000000
 30
27.571365
 70
   192
  0
VERTEX
  8
Box001
 10
21.945389
 20
-0.000000
 30
27.571365
 70
   192
  0
VERTEX
  8
Box001
 10
-22.751968
 20
0.000000
 30
-22.690170
 70
   192
  0
VERTEX
  8
Box001
 10
21.945389
 20
0.000000
 30
-22.690170
 70
   192
  0
VERTEX
  8
Box001
 10
-22.751968
 20
54.492172
 30
27.571365
 70
   192
  0
VERTEX
  8
Box001
 10
21.945389
 20
54.492172
 30
27.571365
 70
   192
  0
VERTEX
  8
Box001
 10
-22.751968
 20
54.492172
 30
-22.690170
 70
   192
  0
VERTEX
  8
Box001
 10
21.945389
 20
54.492172
 30
-22.690170
 70
   192
  0
VERTEX
  8
Box001
 10
-22.751968
 20
53.492172
 30
27.571365
 70
   192
  0
VERTEX
  8
Box001
 10
21.945389
 20
53.492172
 30
27.571365
 70
   192
  0
VERTEX
  8
Box001
 10
21.945389
 20
53.492172
 30
-22.690170
 70
   192
  0
VERTEX
  8
Box001
 10
-22.751968
 20
53.492172
 30
-22.690170
 70
   192
  0
VERTEX
  8
Box001
 10
20.945389
 20
-0.000000
 30
27.571365
 70
   192
  0
VERTEX
  8
Box001
 10
20.945389
 20
0.000000
 30
-22.690170
 70
   192
  0
VERTEX
  8
Box001
 10
20.945389
 20
54.492172
 30
-22.690170
 70
   192
  0
VERTEX
  8
Box001
 10
20.945389
 20
54.492172
 30
27.571365
 70
   192
  0
VERTEX
  8
Box001
 10
-22.751968
 20
-0.000000
 30
26.571365
 70
   192
  0
VERTEX
  8
Box001
 10
21.945389
 20
-0.000000
 30
26.571365
 70
   192
  0
VERTEX
  8
Box001
 10
21.945389
 20
54.492172
 30
26.571365
 70
   192
  0
VERTEX
  8
Box001
 10
-22.751968
 20
54.492172
 30
26.571365
 70
   192
  0
VERTEX
  8
Box001
 10
21.945389
 20
0.000000
 30
-21.690170
 70
   192
  0
VERTEX
  8
Box001
 10
-22.751968
 20
0.000000
 30
-21.690170
 70
   192
  0
VERTEX
  8
Box001
 10
-22.751968
 20
54.492172
 30
-21.690170
 70
   192
  0
VERTEX
  8
Box001
 10
21.945389
 20
54.492172
 30
-21.690170
 70
   192
  0
VERTEX
  8
Box001
 10
-21.751968
 20
0.000000
 30
-22.690170
 70
   192
  0
VERTEX
  8
Box001
 10
-21.751968
 20
-0.000000
 30
27.571365
 70
   192
  0
VERTEX
  8
Box001
 10
-21.751968
 20
54.492172
 30
27.571365
 70
   192
  0
VERTEX
  8
Box001
 10
-21.751968
 20
54.492172
 30
-22.690170
 70
   192
  0
VERTEX
  8
Box001
 10
-22.751968
 20
1.000000
 30
27.571365
 70
   192
  0
VERTEX
  8
Box001
 10
-22.751968
 20
1.000000
 30
-22.690170
 70
   192
  0
VERTEX
  8
Box001
 10
21.945389
 20
1.000000
 30
-22.690170
 70
   192
  0
VERTEX
  8
Box001
 10
21.945389
 20
1.000000
 30
27.571365
 70
   192
  0
VERTEX
  8
Box001
 62
   251
 10
0.0
 20
0.0
 30
0.0
 70
   128
 71
   31
 72
   29
 73
   32
  0
VERTEX
  8
Box001
 62
   251
 10
0.0
 20
0.0
 30
0.0
 70
   128
 71
   31
 72
   30
 73
   29
  0
VERTEX
  8
Box001
 62
   251
 10
0.0
 20
0.0
 30
0.0
 70
   128
 71
   9
 72
   12
 73
   11
  0
VERTEX
  8
Box001
 62
   251
 10
0.0
 20
0.0
 30
0.0
 70
   128
 71
   10
 72
   9
 73
   11
  0
VERTEX
  8
Box001
 62
   251
 10
0.0
 20
0.0
 30
0.0
 70
   128
 71
   17
 72
   20
 73
   19
  0
VERTEX
  8
Box001
 62
   251
 10
0.0
 20
0.0
 30
0.0
 70
   128
 71
   18
 72
   17
 73
   19
  0
VERTEX
  8
Box001
 62
   251
 10
0.0
 20
0.0
 30
0.0
 70
   128
 71
   13
 72
   16
 73
   15
  0
VERTEX
  8
Box001
 62
   251
 10
0.0
 20
0.0
 30
0.0
 70
   128
 71
   14
 72
   13
 73
   15
  0
VERTEX
  8
Box001
 62
   251
 10
0.0
 20
0.0
 30
0.0
 70
   128
 71
   21
 72
   24
 73
   23
  0
VERTEX
  8
Box001
 62
   251
 10
0.0
 20
0.0
 30
0.0
 70
   128
 71
   22
 72
   21
 73
   23
  0
VERTEX
  8
Box001
 62
   251
 10
0.0
 20
0.0
 30
0.0
 70
   128
 71
   25
 72
   28
 73
   27
  0
VERTEX
  8
Box001
 62
   251
 10
0.0
 20
0.0
 30
0.0
 70
   128
 71
   26
 72
   25
 73
   27
  0
VERTEX
  8
Box001
 62
   251
 10
0.0
 20
0.0
 30
0.0
 70
   128
 71
   10
 72
   6
 73
   5
  0
VERTEX
  8
Box001
 62
   251
 10
0.0
 20
0.0
 30
0.0
 70
   128
 71
   9
 72
   10
 73
   5
  0
VERTEX
  8
Box001
 62
   251
 10
0.0
 20
0.0
 30
0.0
 70
   128
 71
   11
 72
   8
 73
   6
  0
VERTEX
  8
Box001
 62
   251
 10
0.0
 20
0.0
 30
0.0
 70
   128
 71
   10
 72
   11
 73
   6
  0
VERTEX
  8
Box001
 62
   251
 10
0.0
 20
0.0
 30
0.0
 70
   128
 71
   12
 72
   7
 73
   8
  0
VERTEX
  8
Box001
 62
   251
 10
0.0
 20
0.0
 30
0.0
 70
   128
 71
   11
 72
   12
 73
   8
  0
VERTEX
  8
Box001
 62
   251
 10
0.0
 20
0.0
 30
0.0
 70
   128
 71
   9
 72
   5
 73
   7
  0
VERTEX
  8
Box001
 62
   251
 10
0.0
 20
0.0
 30
0.0
 70
   128
 71
   12
 72
   9
 73
   7
  0
VERTEX
  8
Box001
 62
   251
 10
0.0
 20
0.0
 30
0.0
 70
   128
 71
   4
 72
   2
 73
   14
  0
VERTEX
  8
Box001
 62
   251
 10
0.0
 20
0.0
 30
0.0
 70
   128
 71
   13
 72
   14
 73
   2
  0
VERTEX
  8
Box001
 62
   251
 10
0.0
 20
0.0
 30
0.0
 70
   128
 71
   8
 72
   4
 73
   15
  0
VERTEX
  8
Box001
 62
   251
 10
0.0
 20
0.0
 30
0.0
 70
   128
 71
   14
 72
   15
 73
   4
  0
VERTEX
  8
Box001
 62
   251
 10
0.0
 20
0.0
 30
0.0
 70
   128
 71
   6
 72
   8
 73
   16
  0
VERTEX
  8
Box001
 62
   251
 10
0.0
 20
0.0
 30
0.0
 70
   128
 71
   15
 72
   16
 73
   8
  0
VERTEX
  8
Box001
 62
   251
 10
0.0
 20
0.0
 30
0.0
 70
   128
 71
   6
 72
   16
 73
   13
  0
VERTEX
  8
Box001
 62
   251
 10
0.0
 20
0.0
 30
0.0
 70
   128
 71
   13
 72
   2
 73
   6
  0
VERTEX
  8
Box001
 62
   251
 10
0.0
 20
0.0
 30
0.0
 70
   128
 71
   1
 72
   17
 73
   18
  0
VERTEX
  8
Box001
 62
   251
 10
0.0
 20
0.0
 30
0.0
 70
   128
 71
   2
 72
   1
 73
   18
  0
VERTEX
  8
Box001
 62
   251
 10
0.0
 20
0.0
 30
0.0
 70
   128
 71
   6
 72
   2
 73
   19
  0
VERTEX
  8
Box001
 62
   251
 10
0.0
 20
0.0
 30
0.0
 70
   128
 71
   18
 72
   19
 73
   2
  0
VERTEX
  8
Box001
 62
   251
 10
0.0
 20
0.0
 30
0.0
 70
   128
 71
   20
 72
   5
 73
   6
  0
VERTEX
  8
Box001
 62
   251
 10
0.0
 20
0.0
 30
0.0
 70
   128
 71
   19
 72
   20
 73
   6
  0
VERTEX
  8
Box001
 62
   251
 10
0.0
 20
0.0
 30
0.0
 70
   128
 71
   5
 72
   20
 73
   17
  0
VERTEX
  8
Box001
 62
   251
 10
0.0
 20
0.0
 30
0.0
 70
   128
 71
   17
 72
   1
 73
   5
  0
VERTEX
  8
Box001
 62
   251
 10
0.0
 20
0.0
 30
0.0
 70
   128
 71
   22
 72
   3
 73
   4
  0
VERTEX
  8
Box001
 62
   251
 10
0.0
 20
0.0
 30
0.0
 70
   128
 71
   21
 72
   22
 73
   4
  0
VERTEX
  8
Box001
 62
   251
 10
0.0
 20
0.0
 30
0.0
 70
   128
 71
   7
 72
   3
 73
   23
  0
VERTEX
  8
Box001
 62
   251
 10
0.0
 20
0.0
 30
0.0
 70
   128
 71
   22
 72
   23
 73
   3
  0
VERTEX
  8
Box001
 62
   251
 10
0.0
 20
0.0
 30
0.0
 70
   128
 71
   7
 72
   23
 73
   24
  0
VERTEX
  8
Box001
 62
   251
 10
0.0
 20
0.0
 30
0.0
 70
   128
 71
   8
 72
   7
 73
   24
  0
VERTEX
  8
Box001
 62
   251
 10
0.0
 20
0.0
 30
0.0
 70
   128
 71
   8
 72
   24
 73
   21
  0
VERTEX
  8
Box001
 62
   251
 10
0.0
 20
0.0
 30
0.0
 70
   128
 71
   21
 72
   4
 73
   8
  0
VERTEX
  8
Box001
 62
   251
 10
0.0
 20
0.0
 30
0.0
 70
   128
 71
   3
 72
   25
 73
   26
  0
VERTEX
  8
Box001
 62
   251
 10
0.0
 20
0.0
 30
0.0
 70
   128
 71
   26
 72
   1
 73
   3
  0
VERTEX
  8
Box001
 62
   251
 10
0.0
 20
0.0
 30
0.0
 70
   128
 71
   5
 72
   1
 73
   27
  0
VERTEX
  8
Box001
 62
   251
 10
0.0
 20
0.0
 30
0.0
 70
   128
 71
   26
 72
   27
 73
   1
  0
VERTEX
  8
Box001
 62
   251
 10
0.0
 20
0.0
 30
0.0
 70
   128
 71
   5
 72
   27
 73
   28
  0
VERTEX
  8
Box001
 62
   251
 10
0.0
 20
0.0
 30
0.0
 70
   128
 71
   28
 72
   7
 73
   5
  0
VERTEX
  8
Box001
 62
   251
 10
0.0
 20
0.0
 30
0.0
 70
   128
 71
   7
 72
   28
 73
   25
  0
VERTEX
  8
Box001
 62
   251
 10
0.0
 20
0.0
 30
0.0
 70
   128
 71
   25
 72
   3
 73
   7
  0
VERTEX
  8
Box001
 62
   251
 10
0.0
 20
0.0
 30
0.0
 70
   128
 71
   1
 72
   29
 73
   30
  0
VERTEX
  8
Box001
 62
   251
 10
0.0
 20
0.0
 30
0.0
 70
   128
 71
   3
 72
   1
 73
   30
  0
VERTEX
  8
Box001
 62
   251
 10
0.0
 20
0.0
 30
0.0
 70
   128
 71
   3
 72
   30
 73
   31
  0
VERTEX
  8
Box001
 62
   251
 10
0.0
 20
0.0
 30
0.0
 70
   128
 71
   4
 72
   3
 73
   31
  0
VERTEX
  8
Box001
 62
   251
 10
0.0
 20
0.0
 30
0.0
 70
   128
 71
   4
 72
   31
 73
   32
  0
VERTEX
  8
Box001
 62
   251
 10
0.0
 20
0.0
 30
0.0
 70
   128
 71
   2
 72
   4
 73
   32
  0
VERTEX
  8
Box001
 62
   251
 10
0.0
 20
0.0
 30
0.0
 70
   128
 71
   2
 72
   32
 73
   29
  0
VERTEX
  8
Box001
 62
   251
 10
0.0
 20
0.0
 30
0.0
 70
   128
 71
   1
 72
   2
 73
   29
  0
SEQEND
  0
ENDSEC
  0
EOF
